<svg width="18" height="11" viewBox="0 0 18 11" fill="none" xmlns="http://www.w3.org/2000/svg">
<path fill-rule="evenodd" clip-rule="evenodd" d="M8.80777 6.58628C7.91343 6.58628 5.71698 6.58911 5.71698 6.58911V4.41089H11.2075C11.59 7.04653 10.4364 11 5.71698 11C2.55957 11 0 8.53753 0 5.5C0 2.46242 2.55957 0 5.71698 0C7.19853 0 8.54842 0.542158 9.56406 1.43152C8.77702 2.14656 8.52471 2.41914 8.31033 2.65073C8.19881 2.77121 8.09756 2.88059 7.93664 3.0354C7.34915 2.56801 6.70868 2.23267 5.71698 2.23267C3.8413 2.23267 2.37736 3.69551 2.37736 5.5C2.37736 7.30449 3.8413 8.76733 5.71698 8.76733C7.57042 8.76733 8.32347 7.99836 8.80777 6.58628ZM16.0189 2.61386V4.5198H18V5.88119H16.0189V7.84158H14.6038V5.88119H12.566V4.5198H14.6038V2.61386H16.0189Z" fill="#F4511E"/>
</svg>
