<svg width="20" height="18" viewBox="0 0 20 18" fill="none" xmlns="http://www.w3.org/2000/svg">
<path fill-rule="evenodd" clip-rule="evenodd" d="M5 0H15C15.55 0 16 0.45 16 1V3C16 3.55 15.55 4 15 4H5C4.45 4 4 3.55 4 3V1C4 0.45 4.45 0 5 0ZM3 5H17C18.66 5 20 6.34 20 8V12C20 13.1 19.1 14 18 14H16V16C16 17.1 15.1 18 14 18H6C4.9 18 4 17.1 4 16V14H2C0.9 14 0 13.1 0 12V8C0 6.34 1.34 5 3 5ZM7 16H13C13.55 16 14 15.55 14 15V11H6V15C6 15.55 6.45 16 7 16ZM17 9C16.45 9 16 8.55 16 8C16 7.45 16.45 7 17 7C17.55 7 18 7.45 18 8C18 8.55 17.55 9 17 9Z" fill="#F4511E"/>
</svg>
