<svg width="18" height="18" viewBox="0 0 18 18" fill="none" xmlns="http://www.w3.org/2000/svg">
<path fill-rule="evenodd" clip-rule="evenodd" d="M18 18H14.5717C14.5717 9.96493 8.03518 3.42836 0.000192682 3.42836V0C9.92516 0 18 8.07493 18 18ZM0.000192682 15.4286C0.000192682 14.0085 1.15154 12.8571 2.57159 12.8571C3.99165 12.8571 5.14299 14.0085 5.14299 15.4286C5.14299 16.8486 3.99165 18 2.57159 18C1.15154 18 0.000192682 16.8486 0.000192682 15.4286ZM8.57176 18H12.0001C12.0001 11.3831 6.61686 5.99979 0 5.99979V9.42879C4.72623 9.42879 8.57176 13.2737 8.57176 18Z" fill="#F4511E"/>
</svg>
