<svg width="18" height="15" viewBox="0 0 18 15" fill="none" xmlns="http://www.w3.org/2000/svg">
<path d="M18 1.77573C17.3386 2.07692 16.6265 2.28061 15.8796 2.37161C16.6424 1.90358 17.2277 1.16143 17.5034 0.277356C16.7892 0.710726 16 1.026 15.1569 1.19502C14.4849 0.459372 13.5246 0 12.4617 0C10.4237 0 8.77021 1.69556 8.77021 3.78657C8.77021 4.08342 8.8019 4.37161 8.86529 4.64897C5.79609 4.49079 3.07554 2.98483 1.25304 0.691224C0.935024 1.25244 0.753302 1.90358 0.753302 2.59697C0.753302 3.91008 1.40518 5.06934 2.3962 5.74865C1.79186 5.73023 1.22134 5.55796 0.722663 5.27627V5.32286C0.722663 7.15818 1.99577 8.68906 3.68621 9.03575C3.37665 9.12459 3.05018 9.16901 2.71315 9.16901C2.47544 9.16901 2.243 9.14626 2.01796 9.10184C2.48811 10.6056 3.85103 11.701 5.46751 11.7302C4.20391 12.7465 2.61067 13.3521 0.881141 13.3521C0.583201 13.3521 0.288431 13.3348 0 13.3001C1.63444 14.3727 3.57633 15 5.66086 15C12.4543 15 16.168 9.23077 16.168 4.22644C16.168 4.06176 16.1648 3.89707 16.1585 3.73564C16.8801 3.20152 17.5066 2.53521 18 1.77573Z" fill="#F4511E"/>
</svg>
