<svg width="18" height="13" viewBox="0 0 18 13" fill="none" xmlns="http://www.w3.org/2000/svg">
<path fill-rule="evenodd" clip-rule="evenodd" d="M17.1045 0.969787C17.6439 1.53063 17.82 2.80424 17.82 2.80424C17.82 2.80424 18 4.30022 18 5.79562V7.19803C18 8.69401 17.82 10.1894 17.82 10.1894C17.82 10.1894 17.6439 11.463 17.1045 12.0239C16.4878 12.6873 15.8039 12.7559 15.4174 12.7946C15.3749 12.7989 15.336 12.8028 15.3011 12.8071C12.7822 12.9942 9 13 9 13C9 13 4.32 12.9561 2.88 12.814C2.81177 12.8009 2.72907 12.7907 2.63541 12.7792C2.17928 12.723 1.46335 12.6348 0.894938 12.0239C0.3555 11.463 0.18 10.1894 0.18 10.1894C0.18 10.1894 0 8.69401 0 7.19803V5.79562C0 4.30022 0.18 2.80424 0.18 2.80424C0.18 2.80424 0.3555 1.53063 0.894938 0.969787C1.51305 0.305384 2.19754 0.237575 2.58411 0.19928C2.62602 0.195128 2.66443 0.191323 2.69887 0.187142C5.21775 0 8.99606 0 8.99606 0H9.00394C9.00394 0 12.7822 0 15.3011 0.187142C15.3356 0.191329 15.374 0.195139 15.4159 0.199298C15.8022 0.237597 16.487 0.305492 17.1045 0.969787ZM7.14094 3.70414L7.1415 8.89732L12.0043 6.30968L7.14094 3.70414Z" fill="#F4511E"/>
</svg>
